<svg width="997" height="997" xmlns="http://www.w3.org/2000/svg">

 <g>
  <title>Layer 1</title>
  <g stroke="null" id="svg_50">
   <rect stroke="null" x="-1.14941" id="svg_25" fill="#1b262c" stroke-width="0px" height="997.90498" width="1001.75444" y="-0.27962" class="cls-6"/>
   <path stroke="null" id="svg_28" fill="#bbe1fa" stroke-width="0px" d="m764.02155,628.03662l-157.229,-90.43042c-27.09955,-15.58008 -60.96106,3.89087 -60.96106,35.06842l0,46.02075c0,20.70508 -16.86194,37.45087 -37.59534,37.45087c-15.79507,0 -29.35342,-9.59851 -34.9455,-23.31042c-10.99457,-46.10638 -46.57684,-82.71741 -92.19,-95.33228c0,-0.01733 0,-0.05145 -0.06882,-0.06854c-15.39957,-4.67938 -26.6351,-19.07684 -26.6351,-35.97687c0,-20.56787 16.72437,-37.31372 37.35446,-37.45084l44.47757,0c22.45401,0 40.64075,-18.13403 40.64075,-40.48453l0,-179.76376c0,-22.36766 -18.20395,-40.48457 -40.64075,-40.48457l-180.4572,0c-22.45389,0 -40.64073,18.13403 -40.64073,40.48457l0,179.76376c0,22.36768 18.20403,40.48453 40.64073,40.48453l44.46056,0c20.66452,0.13712 37.35437,16.86578 37.35437,37.45084c0,17.29419 -11.61407,31.9317 -27.58142,36.26813c-0.06873,0.01715 -0.05154,0.03424 -0.05154,0.05145c-54.73264,15.59735 -94.82269,65.78308 -94.82269,125.31006l0,0c0,72.00507 58.58664,130.36652 130.86932,130.36652c59.87717,0 110.32544,-40.07312 125.87958,-94.74976c0.06879,0.70294 0.15488,1.01135 0.24091,0.73706c4.69717,-15.34015 19.15045,-26.53253 36.11551,-26.53253c20.7334,0 37.59534,16.79712 37.59534,37.45068l0,43.15851c0,31.1604 33.86151,50.64856 60.96106,35.06818l157.229,-90.43024c27.09955,-15.5802 27.09955,-54.53931 0,-70.11957z" class="cls-7"/>
  </g>
 </g>
</svg>